# xmcd
#
# Track frame offsets: 
#        150
#        30240
#        56789
#        83187
#        108070
#        130152
#        153815
#        179046
#        184902
#        213611
#        244184
#        268463
#        293903
#        316521
#
# Disc length: 4572 seconds
#
# Revision: 0
# Processed by: cddbd v1.5.2PL0 Copyright (c) Steve Scherf et al.
# Submitted via: ExactAudioCopyFreeDBPlugin 1.0
#
DISCID=c611da0e
DTITLE=Lou Donaldson - Complete Albums Collection (1953 - 1959) [2016]
DYEAR=2016
DGENRE=Jazz Alto Sax
TTITLE0=Blues Walk
TTITLE1=Move
TTITLE2=The Masquerade Is Over
TTITLE3=Play Ray
TTITLE4=Autumn Nocturne
TTITLE5=Callin' All Cats
TTITLE6=Light-Foot
TTITLE7=Hog Maw (False Start)
TTITLE8=Hog Maw
TTITLE9=Mary Ann
TTITLE10=Green Eyes
TTITLE11=Walking By The River
TTITLE12=Day Dreams
TTITLE13=Stella By Starlight
EXTD=
EXTT0=
EXTT1=
EXTT2=
EXTT3=
EXTT4=
EXTT5=
EXTT6=
EXTT7=
EXTT8=
EXTT9=
EXTT10=
EXTT11=
EXTT12=
EXTT13=
PLAYORDER=
